<?xml version="1.0" encoding="UTF-8"?><svg id="Layer_1" xmlns="http://www.w3.org/2000/svg" viewBox="0 0 162.87 162.87"><defs><style>.cls-1{fill:none;}.cls-1,.cls-2,.cls-3,.cls-4,.cls-5,.cls-6,.cls-7,.cls-8{stroke-width:0px;}.cls-2{fill:#2bace2;}.cls-3{fill:#87d1ef;}.cls-4{fill:#b92025;}.cls-5{fill:#821618;}.cls-6{fill:#fff;}.cls-7{fill:#ec2227;}.cls-8{fill:#0179a4;}</style></defs><rect class="cls-1" x="0" y="0" width="162.87" height="162.87"/><circle class="cls-3" cx="81.44" cy="81.44" r="75"/><path class="cls-2" d="m156.44,81.44c0,41.42-33.58,75-75,75S6.44,122.86,6.44,81.44,40.01,6.44,81.44,6.44v75h75Z"/><path class="cls-8" d="m134.47,134.47c-29.29,29.29-76.78,29.29-106.07,0C-.89,105.18-.89,57.69,28.4,28.4l53.03,53.03,53.03,53.03Z"/><circle class="cls-7" cx="81.44" cy="81.44" r="49.44"/><circle class="cls-6" cx="81.44" cy="81.44" r="21.43"/><circle class="cls-5" cx="81.44" cy="81.44" r="49.44"/><path class="cls-4" d="m46.48,46.48c19.31-19.31,50.61-19.31,69.91,0,19.31,19.31,19.31,50.61,0,69.91-19.31,19.31-50.61,19.31-69.91,0l34.96-34.96-34.96-34.96Z"/><path class="cls-7" d="m116.39,46.48c19.31,19.31,19.31,50.61,0,69.91-19.31,19.31-50.61,19.31-69.91,0l34.96-34.96,34.96-34.96Z"/><circle class="cls-6" cx="81.44" cy="81.44" r="21.43"/></svg>