<?xml version="1.0" encoding="UTF-8"?><svg id="Layer_1" xmlns="http://www.w3.org/2000/svg" viewBox="0 0 163.62 195.58"><defs><style>.cls-1{fill:none;}.cls-1,.cls-2,.cls-3,.cls-4,.cls-5,.cls-6,.cls-7,.cls-8{stroke-width:0px;}.cls-2{fill:#2bace2;}.cls-3{fill:#87d1ef;}.cls-4{fill:#b92025;}.cls-5{fill:#821618;}.cls-6{fill:#fff;}.cls-7{fill:#ec2227;}.cls-8{fill:#0179a4;}</style></defs><rect class="cls-1" x="0" y="0" width="163.62" height="195.58"/><circle class="cls-3" cx="81.81" cy="68.05" r="56.27"/><path class="cls-2" d="m138.08,68.05c0,31.08-25.19,56.27-56.27,56.27s-56.27-25.19-56.27-56.27S50.73,11.79,81.81,11.79v56.27h56.27Z"/><path class="cls-8" d="m121.6,107.84c-21.97,21.97-57.6,21.97-79.57,0-21.97-21.97-21.97-57.6,0-79.57l39.79,39.79,39.79,39.79Z"/><circle class="cls-7" cx="81.81" cy="68.05" r="37.09"/><circle class="cls-6" cx="81.81" cy="68.05" r="16.08"/><circle class="cls-5" cx="81.81" cy="68.05" r="37.09"/><path class="cls-4" d="m55.58,41.83c14.48-14.48,37.97-14.48,52.45,0,14.48,14.48,14.48,37.97,0,52.45-14.48,14.48-37.97,14.48-52.45,0l26.22-26.22-26.22-26.22Z"/><path class="cls-7" d="m108.03,41.83c14.48,14.48,14.48,37.97,0,52.45-14.48,14.48-37.97,14.48-52.45,0l26.22-26.22,26.22-26.22Z"/><circle class="cls-6" cx="81.81" cy="68.05" r="16.08"/><path class="cls-6" d="m73.68,152.48c-.6-.21-1.16-.4-1.67-.6l-.05-.02c-1.46-.56-3.28-1.25-3.59-2.71-.04-.2-.05-.4-.02-.6.13-.88.9-1.41,1.35-1.65,1.1-.58,2.44-.65,3.38-.6.92.04,1.84.34,2.81.9.57.33,1.09.71,1.69,1.18l.52.4,2.6-3.34-.6-.39c-2.12-1.38-4.6-2.1-7.19-2.1-2.41,0-4.69.58-6.43,1.62-1.73,1.04-2.82,2.49-3.07,4.08-.16,1.03-.03,2.01.39,2.89,1.4,2.92,5.72,4.44,8.88,5.54.36.13.7.25,1.02.36,1.82.66,2.78,1.59,2.95,2.85.1.75-.1,1.48-.56,2.06-.17.22-.38.42-.62.58-1.43.98-3.69.66-5.33.21-1.38-.38-2.87-.97-4.09-1.64l-.5-.28-2.68,3.6.7.35c1.97,1,4.34,1.68,6.68,1.9.48.05,1.06.08,1.7.08,2.31,0,5.41-.47,7.78-2.53,1.41-1.23,2.22-2.78,2.27-4.37.05-1.48-.35-2.78-1.18-3.84-1.58-2.03-4.52-3.04-7.11-3.93Z"/><path class="cls-6" d="m19.88,146.57h7.78v14.09c0,.66-.19,1.24-.57,1.74-.97,1.28-3.18,1.85-5.16,1.34-.73-.19-2.47-.83-2.72-2.62l-.08-.57h-5.16l.08.73c.43,3.94,4.9,5.88,9.36,5.88.28,0,.56,0,.84-.02,4.26-.23,8.56-2.33,8.56-6.48v-17.44h-12.94v3.35Z"/><path class="cls-6" d="m142.92,157.54c3.47-.8,5.96-3.68,5.96-6.91,0-.91-.19-1.81-.57-2.65-1.22-2.72-4.11-4.48-7.36-4.48h-11.3v23.65h5.16v-20.3h4.68c1.76,0,3.35,1,3.97,2.5.17.41.25.84.25,1.28s-.09.87-.25,1.28c-.61,1.49-2.21,2.5-3.97,2.5h-1.87v4.28l5.91,8.47h6.1l-6.72-9.62Z"/><path class="cls-6" d="m97.1,143.51h-11.3v23.65h5.16v-20.3h4.68c1.76,0,3.35,1,3.97,2.5.17.41.25.84.25,1.28s-.09.87-.26,1.28c-.61,1.49-2.21,2.5-3.97,2.5h-1.87v3.35h3.33c3.25,0,6.14-1.76,7.36-4.48.38-.84.57-1.74.57-2.65s-.19-1.81-.57-2.65c-1.22-2.72-4.11-4.48-7.36-4.48Z"/><polygon class="cls-6" points="107.89 167.16 126.88 167.16 126.88 163.81 113.05 163.81 113.05 146.86 126.88 146.86 126.88 143.51 107.89 143.51 107.89 167.16"/><rect class="cls-6" x="114.98" y="153.66" width="8.58" height="3.35"/><path class="cls-6" d="m44.7,143.52l-10.75,23.64h5.68l2.26-4.96h8.06l-1.44-3.35h-5.1l4.07-9.64c2.78,6.59,5.3,12.34,7.68,17.57l.18.39h5.68l-10.75-23.64h-5.58Z"/><path class="cls-6" d="m52.96,183.84c-.5,0-.97-.03-1.43-.1-.46-.07-.84-.15-1.16-.26v-.87c.39.13.79.23,1.21.29.41.07.83.1,1.26.1.83,0,1.42-.11,1.77-.33.35-.22.53-.6.53-1.14,0-.38-.09-.66-.26-.86-.17-.2-.44-.36-.81-.51-.37-.14-.83-.31-1.4-.5-.47-.17-.9-.33-1.29-.49s-.69-.38-.91-.67c-.22-.29-.34-.69-.34-1.21,0-.73.24-1.29.73-1.66.48-.37,1.27-.56,2.36-.56.43,0,.83.03,1.21.08.38.05.72.13,1.02.22v.87c-.69-.21-1.38-.32-2.09-.32-.84,0-1.43.1-1.76.31-.34.21-.51.55-.51,1.04,0,.33.07.59.22.77.15.18.38.34.71.47.32.13.75.28,1.27.44.63.2,1.15.4,1.57.6.42.2.73.45.94.75s.31.71.31,1.21c0,.83-.28,1.42-.84,1.77-.56.35-1.33.53-2.31.53Z"/><path class="cls-6" d="m59.33,186.79c-.25,0-.48-.01-.68-.04-.21-.03-.41-.08-.59-.15v-.82c.2.07.39.12.56.14.17.02.35.04.52.04.41,0,.74-.09.99-.27.25-.18.47-.45.66-.8.19-.35.39-.77.6-1.27l-3.67-8.35h1.01l3.16,7.31,3.28-7.31h.99l-3.63,8.14c-.28.65-.56,1.23-.84,1.74-.28.51-.6.91-.97,1.21-.37.3-.83.44-1.38.44Z"/><path class="cls-6" d="m70.21,183.84c-.5,0-.97-.03-1.43-.1-.46-.07-.84-.15-1.16-.26v-.87c.39.13.79.23,1.21.29.41.07.83.1,1.26.1.83,0,1.42-.11,1.77-.33.35-.22.53-.6.53-1.14,0-.38-.09-.66-.26-.86-.17-.2-.44-.36-.81-.51-.37-.14-.83-.31-1.4-.5-.47-.17-.9-.33-1.29-.49s-.69-.38-.91-.67c-.22-.29-.34-.69-.34-1.21,0-.73.24-1.29.73-1.66.48-.37,1.27-.56,2.36-.56.43,0,.83.03,1.21.08.38.05.72.13,1.02.22v.87c-.69-.21-1.38-.32-2.09-.32-.84,0-1.43.1-1.76.31-.34.21-.51.55-.51,1.04,0,.33.07.59.22.77.15.18.38.34.71.47.32.13.75.28,1.27.44.63.2,1.15.4,1.57.6.42.2.73.45.94.75s.31.71.31,1.21c0,.83-.28,1.42-.84,1.77-.56.35-1.33.53-2.31.53Z"/><path class="cls-6" d="m78.78,183.84c-.74,0-1.32-.21-1.72-.62-.4-.41-.6-.99-.6-1.74v-5.41h-1.31v-.82h1.31v-2.2l.98-.32v2.52h2.43l-.05.82h-2.38v5.37c0,.54.13.95.38,1.21.25.26.67.39,1.25.39.15,0,.32-.01.49-.04.17-.03.36-.08.56-.15v.78c-.39.14-.83.21-1.33.21Z"/><path class="cls-6" d="m86.4,183.84c-1.51,0-2.62-.36-3.31-1.07-.69-.72-1.04-1.84-1.04-3.36,0-1.35.3-2.41.91-3.17.61-.77,1.6-1.15,2.97-1.15.82,0,1.48.15,1.99.45s.88.71,1.13,1.21c.24.51.36,1.08.36,1.7v1.52h-6.38c.05,1.09.33,1.87.85,2.35.52.48,1.42.72,2.71.72.78,0,1.54-.15,2.27-.44v.8c-.72.3-1.54.44-2.46.44Zm-3.37-4.63h5.5v-.8c0-.78-.2-1.39-.6-1.84-.4-.45-1.06-.67-1.97-.67-1.11,0-1.88.29-2.3.86-.42.57-.63,1.39-.63,2.46Z"/><path class="cls-6" d="m92.34,183.67v-8.4h.85l.09,1.03c.46-.38.95-.67,1.48-.89.53-.21,1.08-.32,1.66-.32.65,0,1.15.11,1.51.32.35.21.61.51.78.89.4-.34.87-.63,1.4-.86s1.17-.35,1.92-.35c.95,0,1.65.24,2.12.72.47.48.7,1.23.7,2.24v5.62h-.96v-5.53c0-.84-.18-1.42-.54-1.75-.36-.32-.92-.49-1.69-.49-.53,0-1.03.09-1.51.27-.47.18-.87.45-1.21.81.04.17.06.36.09.58.02.22.04.42.04.61v5.5h-.94v-5.48c0-.8-.14-1.39-.41-1.75-.27-.36-.8-.54-1.58-.54-.52,0-1.03.12-1.52.35-.5.24-.93.53-1.31.87v6.54h-.96Z"/><path class="cls-6" d="m110.32,183.84c-.5,0-.97-.03-1.43-.1-.46-.07-.84-.15-1.16-.26v-.87c.39.13.79.23,1.21.29.41.07.83.1,1.26.1.83,0,1.42-.11,1.77-.33.35-.22.53-.6.53-1.14,0-.38-.09-.66-.26-.86-.17-.2-.44-.36-.81-.51-.37-.14-.83-.31-1.4-.5-.47-.17-.9-.33-1.29-.49s-.69-.38-.91-.67c-.22-.29-.34-.69-.34-1.21,0-.73.24-1.29.73-1.66.48-.37,1.27-.56,2.36-.56.43,0,.83.03,1.21.08.38.05.72.13,1.02.22v.87c-.69-.21-1.38-.32-2.09-.32-.84,0-1.43.1-1.76.31-.34.21-.51.55-.51,1.04,0,.33.07.59.22.77.15.18.38.34.71.47.32.13.75.28,1.27.44.63.2,1.15.4,1.57.6.42.2.73.45.94.75s.31.71.31,1.21c0,.83-.28,1.42-.84,1.77-.56.35-1.33.53-2.31.53Z"/></svg>