<?xml version="1.0" encoding="UTF-8"?><svg id="Layer_1" xmlns="http://www.w3.org/2000/svg" viewBox="0 0 419.09 124.4"><defs><style>.cls-1{fill:none;}.cls-1,.cls-2,.cls-3,.cls-4,.cls-5,.cls-6,.cls-7,.cls-8{stroke-width:0px;}.cls-2{fill:#2bace2;}.cls-3{fill:#87d1ef;}.cls-4{fill:#b92025;}.cls-5{fill:#821618;}.cls-6{fill:#fff;}.cls-7{fill:#ec2227;}.cls-8{fill:#0179a4;}</style></defs><rect class="cls-1" x="0" width="419.09" height="124.4"/><path class="cls-6" d="m132.37,37.62c-1.18-.41-2.3-.79-3.32-1.18l-.1-.04c-2.9-1.11-6.52-2.49-7.12-5.38-.08-.4-.1-.79-.04-1.18.25-1.75,1.79-2.8,2.68-3.27,2.17-1.15,4.84-1.28,6.7-1.19,1.82.09,3.65.67,5.58,1.79,1.13.65,2.16,1.4,3.35,2.33l1.03.8,5.15-6.63-1.19-.77c-4.2-2.73-9.13-4.17-14.26-4.17-4.78,0-9.32,1.14-12.76,3.22-3.43,2.07-5.6,4.94-6.1,8.09-.33,2.05-.07,3.98.77,5.73,2.77,5.79,11.35,8.8,17.62,11,.72.25,1.39.49,2.02.72,3.61,1.31,5.52,3.16,5.85,5.65.19,1.48-.2,2.93-1.11,4.08-.35.44-.76.83-1.22,1.15-2.83,1.95-7.32,1.31-10.58.42-2.75-.74-5.7-1.93-8.11-3.26l-1-.55-5.32,7.13,1.38.7c3.9,1.99,8.61,3.33,13.25,3.78.96.09,2.11.16,3.37.16,4.59,0,10.74-.92,15.43-5.03,2.8-2.45,4.4-5.53,4.5-8.67.09-2.94-.69-5.51-2.34-7.63-3.13-4.03-8.96-6.03-14.11-7.8Z"/><path class="cls-6" d="m25.62,25.9h15.43v27.95c0,1.3-.38,2.46-1.13,3.45-1.92,2.53-6.32,3.67-10.23,2.65-1.46-.38-4.89-1.64-5.4-5.21l-.16-1.12h-10.24l.16,1.45c.86,7.82,9.73,11.68,18.58,11.68.55,0,1.11-.02,1.66-.05,8.46-.46,16.99-4.61,16.99-12.85V19.25h-25.67v6.65Z"/><path class="cls-6" d="m269.75,47.66c6.88-1.59,11.83-7.31,11.83-13.7,0-1.81-.38-3.58-1.13-5.26-2.42-5.4-8.15-8.89-14.6-8.89h-22.41v46.93h10.24V26.46h9.29c3.49,0,6.65,1.99,7.87,4.96.34.82.51,1.67.51,2.54s-.17,1.72-.51,2.54c-1.22,2.96-4.38,4.96-7.87,4.96h-3.72v8.49l11.74,16.8h12.11l-13.33-19.09Z"/><path class="cls-6" d="m178.84,19.81h-22.41v46.93h10.24V26.46h9.29c3.49,0,6.65,1.99,7.87,4.96.34.82.51,1.67.51,2.54s-.17,1.72-.51,2.54c-1.22,2.96-4.38,4.96-7.87,4.96h-3.72v6.65h6.61c6.45,0,12.18-3.49,14.6-8.89.75-1.67,1.13-3.44,1.13-5.26s-.38-3.58-1.13-5.26c-2.42-5.4-8.15-8.89-14.6-8.89Z"/><polygon class="cls-6" points="200.23 66.75 237.92 66.75 237.92 60.1 210.47 60.1 210.47 26.46 237.92 26.46 237.92 19.81 200.23 19.81 200.23 66.75"/><rect class="cls-6" x="214.32" y="39.96" width="17.03" height="6.65"/><path class="cls-6" d="m74.86,19.84l-21.32,46.91h11.28l4.49-9.84h15.99l-2.85-6.65h-10.13l8.07-19.13c5.52,13.08,10.51,24.48,15.23,34.85l.35.76h11.28l-21.32-46.91h-11.07Z"/><path class="cls-6" d="m31.28,99.85c-.99,0-1.93-.07-2.83-.19-.9-.13-1.67-.3-2.3-.51v-1.72c.77.26,1.57.45,2.39.58.82.13,1.65.19,2.5.19,1.64,0,2.81-.22,3.52-.65.7-.43,1.06-1.19,1.06-2.27,0-.75-.17-1.32-.51-1.71-.34-.39-.87-.72-1.6-1-.73-.28-1.65-.61-2.78-.99-.94-.33-1.79-.65-2.55-.97s-1.37-.76-1.81-1.34c-.45-.57-.67-1.38-.67-2.41,0-1.45.48-2.55,1.44-3.29.96-.74,2.52-1.11,4.68-1.11.84,0,1.65.05,2.41.16.76.11,1.44.25,2.02.44v1.72c-1.36-.42-2.74-.63-4.15-.63-1.67,0-2.83.21-3.5.62-.67.41-1,1.1-1,2.06,0,.66.15,1.17.44,1.53.29.36.76.67,1.41.93.64.26,1.48.55,2.52.88,1.24.4,2.28.8,3.11,1.2.83.4,1.45.9,1.86,1.5.41.6.62,1.4.62,2.41,0,1.64-.56,2.81-1.67,3.52-1.11.7-2.64,1.06-4.59,1.06Z"/><path class="cls-6" d="m43.91,105.69c-.49,0-.94-.03-1.35-.09-.41-.06-.8-.16-1.18-.3v-1.62c.4.14.77.23,1.11.28.34.05.69.07,1.04.07.82,0,1.48-.18,1.97-.54.49-.36.93-.89,1.3-1.58.37-.69.77-1.53,1.2-2.52l-7.28-16.57h2.01l6.26,14.49,6.51-14.49h1.97l-7.21,16.15c-.56,1.29-1.12,2.44-1.67,3.45-.55,1.01-1.19,1.81-1.92,2.39-.73.59-1.64.88-2.74.88Z"/><path class="cls-6" d="m65.51,99.85c-.99,0-1.93-.07-2.83-.19-.9-.13-1.67-.3-2.3-.51v-1.72c.77.26,1.57.45,2.39.58.82.13,1.65.19,2.5.19,1.64,0,2.81-.22,3.52-.65.7-.43,1.06-1.19,1.06-2.27,0-.75-.17-1.32-.51-1.71-.34-.39-.87-.72-1.6-1-.73-.28-1.65-.61-2.78-.99-.94-.33-1.79-.65-2.55-.97s-1.37-.76-1.81-1.34c-.45-.57-.67-1.38-.67-2.41,0-1.45.48-2.55,1.44-3.29.96-.74,2.52-1.11,4.68-1.11.84,0,1.65.05,2.41.16.76.11,1.44.25,2.02.44v1.72c-1.36-.42-2.74-.63-4.15-.63-1.67,0-2.83.21-3.5.62-.67.41-1,1.1-1,2.06,0,.66.15,1.17.44,1.53.29.36.76.67,1.41.93.64.26,1.48.55,2.52.88,1.24.4,2.28.8,3.11,1.2.83.4,1.45.9,1.86,1.5s.62,1.4.62,2.41c0,1.64-.56,2.81-1.67,3.52-1.11.7-2.64,1.06-4.59,1.06Z"/><path class="cls-6" d="m82.5,99.85c-1.48,0-2.62-.41-3.41-1.23-.8-.82-1.2-1.97-1.2-3.45v-10.73h-2.6v-1.62h2.6v-4.36l1.93-.63v5h4.82l-.11,1.62h-4.71v10.66c0,1.08.25,1.88.76,2.39.5.52,1.33.77,2.48.77.3,0,.63-.03.97-.09.34-.06.71-.16,1.11-.3v1.55c-.77.28-1.65.42-2.64.42Z"/><path class="cls-6" d="m97.63,99.85c-3,0-5.19-.71-6.56-2.13-1.37-1.42-2.06-3.64-2.06-6.67,0-2.67.6-4.77,1.81-6.3,1.21-1.52,3.17-2.29,5.89-2.29,1.62,0,2.93.3,3.94.9s1.75,1.4,2.23,2.41c.48,1.01.72,2.13.72,3.38v3.03h-12.67c.09,2.16.66,3.71,1.69,4.66,1.03.95,2.83,1.42,5.38,1.42,1.55,0,3.05-.29,4.5-.88v1.58c-1.43.59-3.06.88-4.89.88Zm-6.68-9.18h10.91v-1.58c0-1.55-.4-2.77-1.2-3.66-.8-.89-2.1-1.34-3.91-1.34-2.21,0-3.72.57-4.56,1.71-.83,1.14-1.25,2.76-1.25,4.87Z"/><path class="cls-6" d="m109.42,99.5v-16.68h1.69l.18,2.04c.91-.75,1.89-1.34,2.94-1.76,1.04-.42,2.14-.63,3.29-.63,1.29,0,2.29.21,2.99.63.7.42,1.22,1.01,1.55,1.76.8-.68,1.72-1.25,2.78-1.71s2.32-.69,3.8-.69c1.88,0,3.28.47,4.2,1.42.93.95,1.39,2.43,1.39,4.45v11.15h-1.9v-10.98c0-1.67-.36-2.82-1.07-3.47-.72-.64-1.84-.97-3.36-.97-1.06,0-2.05.18-2.99.55-.94.36-1.74.9-2.39,1.6.07.33.13.71.18,1.14.05.43.07.84.07,1.21v10.91h-1.86v-10.87c0-1.59-.27-2.75-.81-3.47-.54-.72-1.58-1.07-3.13-1.07-1.03,0-2.04.23-3.03.7-.99.47-1.85,1.04-2.6,1.72v12.98h-1.9Z"/><path class="cls-6" d="m145.09,99.85c-.99,0-1.93-.07-2.83-.19-.9-.13-1.67-.3-2.3-.51v-1.72c.77.26,1.57.45,2.39.58.82.13,1.65.19,2.5.19,1.64,0,2.81-.22,3.52-.65.7-.43,1.06-1.19,1.06-2.27,0-.75-.17-1.32-.51-1.71-.34-.39-.87-.72-1.6-1-.73-.28-1.65-.61-2.78-.99-.94-.33-1.79-.65-2.55-.97s-1.37-.76-1.81-1.34c-.45-.57-.67-1.38-.67-2.41,0-1.45.48-2.55,1.44-3.29.96-.74,2.52-1.11,4.68-1.11.84,0,1.65.05,2.41.16.76.11,1.44.25,2.02.44v1.72c-1.36-.42-2.74-.63-4.15-.63-1.67,0-2.83.21-3.5.62-.67.41-1,1.1-1,2.06,0,.66.15,1.17.44,1.53.29.36.76.67,1.41.93.64.26,1.48.55,2.52.88,1.24.4,2.28.8,3.11,1.2.83.4,1.45.9,1.86,1.5s.62,1.4.62,2.41c0,1.64-.56,2.81-1.67,3.52-1.11.7-2.64,1.06-4.59,1.06Z"/><circle class="cls-3" cx="356.97" cy="62.2" r="50"/><path class="cls-2" d="m406.97,62.2c0,27.61-22.39,50-50,50s-50-22.39-50-50,22.39-50,50-50v50h50Z"/><path class="cls-8" d="m392.33,97.56c-19.53,19.53-51.18,19.53-70.71,0-19.53-19.53-19.53-51.18,0-70.71l35.36,35.36,35.36,35.36Z"/><circle class="cls-7" cx="356.97" cy="62.2" r="32.96"/><circle class="cls-6" cx="356.97" cy="62.2" r="14.29"/><circle class="cls-5" cx="356.97" cy="62.2" r="32.96"/><path class="cls-4" d="m333.67,38.9c12.87-12.87,33.74-12.87,46.61,0,12.87,12.87,12.87,33.74,0,46.61-12.87,12.87-33.74,12.87-46.61,0l23.3-23.3-23.3-23.3Z"/><path class="cls-7" d="m380.28,38.9c12.87,12.87,12.87,33.74,0,46.61-12.87,12.87-33.74,12.87-46.61,0l23.3-23.3,23.3-23.3Z"/><circle class="cls-6" cx="356.97" cy="62.2" r="14.29"/></svg>